<?xml version="1.0" encoding="UTF-8" standalone="no" ?>
<!DOCTYPE svg PUBLIC "-//W3C//DTD SVG 1.1//EN" "http://www.w3.org/Graphics/SVG/1.1/DTD/svg11.dtd">
<svg xmlns="http://www.w3.org/2000/svg" xmlns:xlink="http://www.w3.org/1999/xlink" version="1.1" width="119.00797229999989" height="115.43674180000002" viewBox="811.1003986000001 217.40162909999998 119.00797229999989 115.43674180000002" xml:space="preserve">
<desc>Created with Fabric.js 4.6.0</desc>
<defs>
</defs>
<g transform="matrix(-0.93 0 0 0.93 872.39 275.12)" id="Mg_4IZuYHc7fZjVuYl6wF"  >
<radialGradient id="SVGID_5" gradientUnits="userSpaceOnUse" gradientTransform="matrix(1 0 0 1 -61.53 -61.53)"  cx="62.50915817720954" cy="59.557073170339606" r="81.30103407136829" fx="62.50915817720954" fy="59.557073170339606">
<stop offset="0%" style="stop-color:#B72B29;stop-opacity: 1"/>
<stop offset="62.304374105506696%" style="stop-color:#7E7E7E;stop-opacity: 1"/>
<stop offset="100%" style="stop-color:#000000;stop-opacity: 1"/>
</radialGradient>
<path style="stroke: rgb(0,0,0); stroke-width: 1; stroke-dasharray: none; stroke-linecap: butt; stroke-dashoffset: 0; stroke-linejoin: miter; stroke-miterlimit: 4; fill: url(#SVGID_5); fill-rule: nonzero; opacity: 1;" vector-effect="non-scaling-stroke"  transform=" translate(0, 0)" d="M 0 -61.52513 C 33.96187 -61.52513 61.52513 -33.96187 61.52513 0 C 61.52513 33.96187 33.96187 61.52513 0 61.52513 C -33.96187 61.52513 -61.52513 33.96187 -61.52513 0 C -61.52513 -33.96187 -33.96187 -61.52513 0 -61.52513 z" stroke-linecap="round" />
</g>
<g transform="matrix(0.78 0.03 -0.03 0.78 867.1 273.4)" id="FfxvJvbz1TMCvL2qyQ-zI"  >
<path style="stroke: rgb(0,0,0); stroke-width: 1; stroke-dasharray: none; stroke-linecap: butt; stroke-dashoffset: 0; stroke-linejoin: miter; stroke-miterlimit: 4; fill: rgb(236,33,33); fill-rule: nonzero; opacity: 1;" vector-effect="non-scaling-stroke"  transform=" translate(0, 0)" d="M 0 -61.52513 C 33.96187 -61.52513 61.52513 -33.96187 61.52513 0 C 61.52513 33.96187 33.96187 61.52513 0 61.52513 C -33.96187 61.52513 -61.52513 33.96187 -61.52513 0 C -61.52513 -33.96187 -33.96187 -61.52513 0 -61.52513 z" stroke-linecap="round" />
</g>
<g transform="matrix(0.78 0 0 0.78 859.59 270.84)" id="oj2OEdBaczZA_k-tT1nO0"  >
<radialGradient id="SVGID_6" gradientUnits="userSpaceOnUse" gradientTransform="matrix(1 0 0 1 -61.53 -61.53)"  cx="58.073453312986665" cy="62.51132313547186" r="61.52512984158636" fx="58.073453312986665" fy="62.51132313547186">
<stop offset="0%" style="stop-color:#BE130F;stop-opacity: 1"/>
<stop offset="76.14382369326626%" style="stop-color:#EA0707;stop-opacity: 1"/>
<stop offset="100%" style="stop-color:#FF2525;stop-opacity: 1"/>
</radialGradient>
<path style="stroke: rgb(0,0,0); stroke-width: 1; stroke-dasharray: none; stroke-linecap: butt; stroke-dashoffset: 0; stroke-linejoin: miter; stroke-miterlimit: 4; fill: url(#SVGID_6); fill-rule: nonzero; opacity: 1;" vector-effect="non-scaling-stroke"  transform=" translate(0, 0)" d="M 0 -61.52513 C 33.96187 -61.52513 61.52513 -33.96187 61.52513 0 C 61.52513 33.96187 33.96187 61.52513 0 61.52513 C -33.96187 61.52513 -61.52513 33.96187 -61.52513 0 C -61.52513 -33.96187 -33.96187 -61.52513 0 -61.52513 z" stroke-linecap="round" />
</g>
</svg>