<?xml version="1.0" encoding="UTF-8" standalone="no" ?>
<!DOCTYPE svg PUBLIC "-//W3C//DTD SVG 1.1//EN" "http://www.w3.org/Graphics/SVG/1.1/DTD/svg11.dtd">
<svg xmlns="http://www.w3.org/2000/svg" xmlns:xlink="http://www.w3.org/1999/xlink" version="1.1" width="99.64704320000001" height="99.64704319999998" viewBox="184.44647840000005 158.2964784 99.64704320000001 99.64704319999998" xml:space="preserve">
<desc>Created with Fabric.js 4.6.0</desc>
<defs>
</defs>
<g transform="matrix(3.32 0 0 3.32 234.27 208.12)" id="HFCKVOYpZsD89JIjy3VfV"  >
<path style="stroke: rgb(0,0,0); stroke-width: 2; stroke-dasharray: none; stroke-linecap: butt; stroke-dashoffset: 0; stroke-linejoin: miter; stroke-miterlimit: 4; fill: rgb(255,255,255); fill-rule: nonzero; opacity: 1;" vector-effect="non-scaling-stroke"  transform=" translate(0, 0)" d="M 0 -14.70588 C 8.11765 -14.70588 14.70588 -8.117640000000002 14.70588 0 C 14.70588 8.11765 8.117640000000002 14.70588 0 14.70588 C -8.11765 14.70588 -14.70588 8.117640000000002 -14.70588 0 C -14.70588 -8.11765 -8.117640000000002 -14.70588 0 -14.70588 z" stroke-linecap="round" />
</g>
<g transform="matrix(0.37 0 0 0.37 234.27 208.12)" id="7t374VMJbeLvIDgOrZ6Ml"  >
<path style="stroke: rgb(0,0,0); stroke-width: 2; stroke-dasharray: none; stroke-linecap: butt; stroke-dashoffset: 0; stroke-linejoin: miter; stroke-miterlimit: 4; fill: none; fill-rule: nonzero; opacity: 1;" vector-effect="non-scaling-stroke"  transform=" translate(0, 0)" d="M 0 -14.70588 C 8.11765 -14.70588 14.70588 -8.117640000000002 14.70588 0 C 14.70588 8.11765 8.117640000000002 14.70588 0 14.70588 C -8.11765 14.70588 -14.70588 8.117640000000002 -14.70588 0 C -14.70588 -8.11765 -8.117640000000002 -14.70588 0 -14.70588 z" stroke-linecap="round" />
</g>
<g transform="matrix(3.1 0 0 3.1 261.4 208.12)" id="E4SnTyXFJbF6n28rnGv-S"  >
<path style="stroke: rgb(0,0,0); stroke-width: 2; stroke-dasharray: none; stroke-linecap: butt; stroke-dashoffset: 0; stroke-linejoin: miter; stroke-miterlimit: 4; fill: rgb(255,255,255); fill-opacity: 0; fill-rule: nonzero; opacity: 1;" vector-effect="non-scaling-stroke"  transform=" translate(0, 0)" d="M -6.64332 0 L 6.64332 0" stroke-linecap="round" />
</g>
<g transform="matrix(-1.55 2.68 -2.68 -1.55 221.83 229.66)" id="abMP9VN_isG4-8PwsSlrw"  >
<path style="stroke: rgb(0,0,0); stroke-width: 2; stroke-dasharray: none; stroke-linecap: butt; stroke-dashoffset: 0; stroke-linejoin: miter; stroke-miterlimit: 4; fill: rgb(255,255,255); fill-opacity: 0; fill-rule: nonzero; opacity: 1;" vector-effect="non-scaling-stroke"  transform=" translate(0, 0)" d="M -6.64332 0 L 6.64332 0" stroke-linecap="round" />
</g>
<g transform="matrix(1.62 -2.8 2.8 1.62 247.09 185.87)" id="xXwwdy7mnGcWuSV4CVPCL"  >
<path style="stroke: rgb(0,0,0); stroke-width: 2; stroke-dasharray: none; stroke-linecap: butt; stroke-dashoffset: 0; stroke-linejoin: miter; stroke-miterlimit: 4; fill: rgb(255,255,255); fill-opacity: 0; fill-rule: nonzero; opacity: 1;" vector-effect="non-scaling-stroke"  transform=" translate(0, 0)" d="M -6.64332 0 L 6.64332 0" stroke-linecap="round" />
</g>
<g transform="matrix(-1.55 -2.68 2.68 -1.55 221.83 186.58)" id="OAfIrUuQ8skfAlOoy1JQ4"  >
<path style="stroke: rgb(0,0,0); stroke-width: 2; stroke-dasharray: none; stroke-linecap: butt; stroke-dashoffset: 0; stroke-linejoin: miter; stroke-miterlimit: 4; fill: rgb(255,255,255); fill-opacity: 0; fill-rule: nonzero; opacity: 1;" vector-effect="non-scaling-stroke"  transform=" translate(0, 0)" d="M -6.64332 0 L 6.64332 0" stroke-linecap="round" />
</g>
<g transform="matrix(-3.1 0 0 -3.1 209.41 208.12)" id="HpxoylaI-lTj8Wx9cKeA2"  >
<path style="stroke: rgb(0,0,0); stroke-width: 2; stroke-dasharray: none; stroke-linecap: butt; stroke-dashoffset: 0; stroke-linejoin: miter; stroke-miterlimit: 4; fill: rgb(255,255,255); fill-opacity: 0; fill-rule: nonzero; opacity: 1;" vector-effect="non-scaling-stroke"  transform=" translate(0, 0)" d="M -6.64332 0 L 6.64332 0" stroke-linecap="round" />
</g>
<g transform="matrix(1.55 2.68 -2.68 1.55 246.69 229.66)" id="AqFy1t3pjDqaJb5aD9nHX"  >
<path style="stroke: rgb(0,0,0); stroke-width: 2; stroke-dasharray: none; stroke-linecap: butt; stroke-dashoffset: 0; stroke-linejoin: miter; stroke-miterlimit: 4; fill: rgb(255,255,255); fill-opacity: 0; fill-rule: nonzero; opacity: 1;" vector-effect="non-scaling-stroke"  transform=" translate(0, 0)" d="M -6.64332 0 L 6.64332 0" stroke-linecap="round" />
</g>
</svg>