<?xml version="1.0" encoding="UTF-8" standalone="no" ?>
<!DOCTYPE svg PUBLIC "-//W3C//DTD SVG 1.1//EN" "http://www.w3.org/Graphics/SVG/1.1/DTD/svg11.dtd">
<svg xmlns="http://www.w3.org/2000/svg" xmlns:xlink="http://www.w3.org/1999/xlink" version="1.1" width="33.47058319999999" height="33.47058320000002" viewBox="252.0608163371444 101.37426883956047 33.47058319999999 33.47058320000002" xml:space="preserve">
<desc>Created with Fabric.js 4.6.0</desc>
<defs>
</defs>
<g transform="matrix(1.07 0 0 1.07 268.8 118.11)" id="HFCKVOYpZsD89JIjy3VfV"  >
<path style="stroke: rgb(0,0,0); stroke-width: 2; stroke-dasharray: none; stroke-linecap: butt; stroke-dashoffset: 0; stroke-linejoin: miter; stroke-miterlimit: 4; fill: rgb(48,255,36); fill-rule: nonzero; opacity: 1;" vector-effect="non-scaling-stroke"  transform=" translate(0, 0)" d="M 0 -14.70588 C 8.11765 -14.70588 14.70588 -8.117640000000002 14.70588 0 C 14.70588 8.11765 8.117640000000002 14.70588 0 14.70588 C -8.11765 14.70588 -14.70588 8.117640000000002 -14.70588 0 C -14.70588 -8.11765 -8.117640000000002 -14.70588 0 -14.70588 z" stroke-linecap="round" />
</g>
<g transform="matrix(0.12 0 0 0.12 268.8 118.11)" id="7t374VMJbeLvIDgOrZ6Ml"  >
<path style="stroke: rgb(0,0,0); stroke-width: 0.7; stroke-dasharray: none; stroke-linecap: butt; stroke-dashoffset: 0; stroke-linejoin: miter; stroke-miterlimit: 4; fill: none; fill-rule: nonzero; opacity: 1;" vector-effect="non-scaling-stroke"  transform=" translate(0, 0)" d="M 0 -14.70588 C 8.11765 -14.70588 14.70588 -8.117640000000002 14.70588 0 C 14.70588 8.11765 8.117640000000002 14.70588 0 14.70588 C -8.11765 14.70588 -14.70588 8.117640000000002 -14.70588 0 C -14.70588 -8.11765 -8.117640000000002 -14.70588 0 -14.70588 z" stroke-linecap="round" />
</g>
<g transform="matrix(1 0 0 1 277.54 118.11)" id="E4SnTyXFJbF6n28rnGv-S"  >
<path style="stroke: rgb(0,0,0); stroke-width: 1; stroke-dasharray: none; stroke-linecap: butt; stroke-dashoffset: 0; stroke-linejoin: miter; stroke-miterlimit: 4; fill: rgb(255,255,255); fill-opacity: 0; fill-rule: nonzero; opacity: 1;" vector-effect="non-scaling-stroke"  transform=" translate(0, 0)" d="M -6.64332 0 L 6.64332 0" stroke-linecap="round" />
</g>
<g transform="matrix(-0.5 0.87 -0.87 -0.5 264.79 125.05)" id="abMP9VN_isG4-8PwsSlrw"  >
<path style="stroke: rgb(0,0,0); stroke-width: 1; stroke-dasharray: none; stroke-linecap: butt; stroke-dashoffset: 0; stroke-linejoin: miter; stroke-miterlimit: 4; fill: rgb(255,255,255); fill-opacity: 0; fill-rule: nonzero; opacity: 1;" vector-effect="non-scaling-stroke"  transform=" translate(0, 0)" d="M -6.64332 0 L 6.64332 0" stroke-linecap="round" />
</g>
<g transform="matrix(0.52 -0.9 0.9 0.52 272.93 110.94)" id="xXwwdy7mnGcWuSV4CVPCL"  >
<path style="stroke: rgb(0,0,0); stroke-width: 1; stroke-dasharray: none; stroke-linecap: butt; stroke-dashoffset: 0; stroke-linejoin: miter; stroke-miterlimit: 4; fill: rgb(255,255,255); fill-opacity: 0; fill-rule: nonzero; opacity: 1;" vector-effect="non-scaling-stroke"  transform=" translate(0, 0)" d="M -6.64332 0 L 6.64332 0" stroke-linecap="round" />
</g>
<g transform="matrix(-0.5 -0.87 0.87 -0.5 264.79 111.17)" id="OAfIrUuQ8skfAlOoy1JQ4"  >
<path style="stroke: rgb(0,0,0); stroke-width: 1; stroke-dasharray: none; stroke-linecap: butt; stroke-dashoffset: 0; stroke-linejoin: miter; stroke-miterlimit: 4; fill: rgb(255,255,255); fill-opacity: 0; fill-rule: nonzero; opacity: 1;" vector-effect="non-scaling-stroke"  transform=" translate(0, 0)" d="M -6.64332 0 L 6.64332 0" stroke-linecap="round" />
</g>
<g transform="matrix(-1 0 0 -1 260.79 118.11)" id="HpxoylaI-lTj8Wx9cKeA2"  >
<path style="stroke: rgb(0,0,0); stroke-width: 1; stroke-dasharray: none; stroke-linecap: butt; stroke-dashoffset: 0; stroke-linejoin: miter; stroke-miterlimit: 4; fill: rgb(255,255,255); fill-opacity: 0; fill-rule: nonzero; opacity: 1;" vector-effect="non-scaling-stroke"  transform=" translate(0, 0)" d="M -6.64332 0 L 6.64332 0" stroke-linecap="round" />
</g>
<g transform="matrix(0.5 0.87 -0.87 0.5 272.8 125.05)" id="AqFy1t3pjDqaJb5aD9nHX"  >
<path style="stroke: rgb(0,0,0); stroke-width: 1; stroke-dasharray: none; stroke-linecap: butt; stroke-dashoffset: 0; stroke-linejoin: miter; stroke-miterlimit: 4; fill: rgb(255,255,255); fill-opacity: 0; fill-rule: nonzero; opacity: 1;" vector-effect="non-scaling-stroke"  transform=" translate(0, 0)" d="M -6.64332 0 L 6.64332 0" stroke-linecap="round" />
</g>
</svg>