<?xml version="1.0" encoding="UTF-8" standalone="no" ?>
<!DOCTYPE svg PUBLIC "-//W3C//DTD SVG 1.1//EN" "http://www.w3.org/Graphics/SVG/1.1/DTD/svg11.dtd">
<svg xmlns="http://www.w3.org/2000/svg" xmlns:xlink="http://www.w3.org/1999/xlink" version="1.1" width="126.27558888384121" height="69.5082788888889" viewBox="27.82220555807939 23.429555 126.27558888384121 69.5082788888889" xml:space="preserve">
<desc>Created with Fabric.js 4.6.0</desc>
<defs>
</defs>
<g transform="matrix(1 0 0 1 90.96 74.56)" id="vmbdXmOajKMWGT0i83cXA"  >
<path style="stroke: rgb(0,0,0); stroke-width: 1; stroke-dasharray: none; stroke-linecap: butt; stroke-dashoffset: 0; stroke-linejoin: miter; stroke-miterlimit: 4; fill: rgb(255,255,255); fill-opacity: 0; fill-rule: nonzero; opacity: 1;" vector-effect="non-scaling-stroke"  transform=" translate(0, 0)" d="M -58.47431 -17.87784 L 59.607879999999994 -17.87784 C 59.607879999999994 -17.87784 62.89554999999999 -17.55596 62.621579999999994 -15.36418 C 62.347609999999996 -13.1724 57.96404999999999 12.855000000000002 57.96404999999999 12.855000000000002 C 57.96404999999999 12.855000000000002 56.320209999999996 16.690620000000003 53.30651999999999 17.51253 C 50.29281999999999 18.33445 -50.255120000000005 17.51253 -50.255120000000005 17.51253 C -50.255120000000005 17.51253 -54.36471 17.7865 -56.282520000000005 15.594720000000002 C -58.20033000000001 13.402940000000003 -62.63779 -15.364179999999998 -62.63779 -15.364179999999998" stroke-linecap="round" />
</g>
<g transform="matrix(1 0 0 1 30.55 58.01)" id="GPmJblh9AWJO2UDTuRzJi"  >
<path style="stroke: rgb(0,0,0); stroke-width: 1; stroke-dasharray: none; stroke-linecap: butt; stroke-dashoffset: 0; stroke-linejoin: miter; stroke-miterlimit: 4; fill: rgb(255,255,255); fill-opacity: 0; fill-rule: nonzero; opacity: 1;" vector-effect="non-scaling-stroke"  transform=" translate(0, 0)" d="M -2.10008 1.36357 C -2.10008 1.36357 -3.10637 -1.70882 2.1766499999999995 -1.33146" stroke-linecap="round" />
</g>
<g transform="matrix(1 0 0 1 43.96 50.92)" id="Q5hZvH2IYBnUE04ylUHxn"  >
<path style="stroke: rgb(0,0,0); stroke-width: 1; stroke-dasharray: none; stroke-linecap: butt; stroke-dashoffset: 0; stroke-linejoin: miter; stroke-miterlimit: 4; fill: rgb(255,255,255); fill-opacity: 0; fill-rule: nonzero; opacity: 1;" vector-effect="non-scaling-stroke"  transform=" translate(0, 0)" d="M 0 5.76236 L 0 -5.76236" stroke-linecap="round" />
</g>
<g transform="matrix(1 0 0 1 67.24 47.11)" id="0QAAHWzIyyoDKDudjLqLI"  >
<path style="stroke: rgb(0,0,0); stroke-width: 1; stroke-dasharray: none; stroke-linecap: butt; stroke-dashoffset: 0; stroke-linejoin: miter; stroke-miterlimit: 4; fill: rgb(255,255,255); fill-opacity: 0; fill-rule: nonzero; opacity: 1;" vector-effect="non-scaling-stroke"  transform=" translate(0, 0)" d="M 0 9.56283 L 0 -9.56284" stroke-linecap="round" />
</g>
<g transform="matrix(1 0 0 1 91.47 50.97)" id="xY6kLPtT3D-N6rRC4a7ij"  >
<path style="stroke: rgb(0,0,0); stroke-width: 1; stroke-dasharray: none; stroke-linecap: butt; stroke-dashoffset: 0; stroke-linejoin: miter; stroke-miterlimit: 4; fill: rgb(255,255,255); fill-opacity: 0; fill-rule: nonzero; opacity: 1;" vector-effect="non-scaling-stroke"  transform=" translate(0, 0)" d="M 0 5.70298 L 0 -5.7029700000000005" stroke-linecap="round" />
</g>
<g transform="matrix(1 0 0 1 114.8 47.42)" id="KKqxry7sDUClZsqM8jZdV"  >
<path style="stroke: rgb(0,0,0); stroke-width: 1; stroke-dasharray: none; stroke-linecap: butt; stroke-dashoffset: 0; stroke-linejoin: miter; stroke-miterlimit: 4; fill: rgb(255,255,255); fill-opacity: 0; fill-rule: nonzero; opacity: 1;" vector-effect="non-scaling-stroke"  transform=" translate(0, 0)" d="M 0 9.75345 L 0 -9.75345" stroke-linecap="round" />
</g>
<g transform="matrix(1 0 0 1 138.43 50.67)" id="_NY0dK6dvBE_9BOd-WdF0"  >
<path style="stroke: rgb(0,0,0); stroke-width: 1; stroke-dasharray: none; stroke-linecap: butt; stroke-dashoffset: 0; stroke-linejoin: miter; stroke-miterlimit: 4; fill: rgb(255,255,255); fill-opacity: 0; fill-rule: nonzero; opacity: 1;" vector-effect="non-scaling-stroke"  transform=" translate(0, 0)" d="M 0 6.01236 L 0 -6.01236" stroke-linecap="round" />
</g>
<g transform="matrix(1 0 0 1 138.26 39.85)" id="pEKQRwicR9Lc50wmCe2O_"  >
<path style="stroke: rgb(0,0,0); stroke-width: 1; stroke-dasharray: none; stroke-linecap: butt; stroke-dashoffset: 0; stroke-linejoin: miter; stroke-miterlimit: 4; fill: rgb(255,255,255); fill-opacity: 0; fill-rule: nonzero; opacity: 1;" vector-effect="non-scaling-stroke"  transform=" translate(0, 0)" d="M 0.03616 9.18044 C 0.03616 9.18044 -4.92309 7.648250000000001 -4.92309 3.0580300000000005 C -4.92309 -1.53219 0.03615999999999975 -9.180449999999999 0.03615999999999975 -9.180449999999999 C 0.03615999999999975 -9.180449999999999 4.9231 -1.2664999999999988 4.9231 3.3237200000000016 C 4.9231 7.913940000000002 0.03615999999999975 9.18044 0.03615999999999975 9.18044 z" stroke-linecap="round" />
</g>
<g transform="matrix(1 0 0 1 114.8 33.11)" id="PyR2FbRJk9BkoWM8Ohs5d"  >
<path style="stroke: rgb(0,0,0); stroke-width: 1; stroke-dasharray: none; stroke-linecap: butt; stroke-dashoffset: 0; stroke-linejoin: miter; stroke-miterlimit: 4; fill: rgb(255,255,255); fill-opacity: 0; fill-rule: nonzero; opacity: 1;" vector-effect="non-scaling-stroke"  transform=" translate(0, 0)" d="M 0.03616 9.18044 C 0.03616 9.18044 -4.92309 7.648250000000001 -4.92309 3.0580300000000005 C -4.92309 -1.53219 0.03615999999999975 -9.180449999999999 0.03615999999999975 -9.180449999999999 C 0.03615999999999975 -9.180449999999999 4.9231 -1.2664999999999988 4.9231 3.3237200000000016 C 4.9231 7.913940000000002 0.03615999999999975 9.18044 0.03615999999999975 9.18044 z" stroke-linecap="round" />
</g>
<g transform="matrix(1 0 0 1 91.47 39.85)" id="DuMdaWd2NgZMtaggeXcoG"  >
<path style="stroke: rgb(0,0,0); stroke-width: 1; stroke-dasharray: none; stroke-linecap: butt; stroke-dashoffset: 0; stroke-linejoin: miter; stroke-miterlimit: 4; fill: rgb(255,255,255); fill-opacity: 0; fill-rule: nonzero; opacity: 1;" vector-effect="non-scaling-stroke"  transform=" translate(0, 0)" d="M 0.03616 9.18044 C 0.03616 9.18044 -4.92309 7.648250000000001 -4.92309 3.0580300000000005 C -4.92309 -1.53219 0.03615999999999975 -9.180449999999999 0.03615999999999975 -9.180449999999999 C 0.03615999999999975 -9.180449999999999 4.9231 -1.2664999999999988 4.9231 3.3237200000000016 C 4.9231 7.913940000000002 0.03615999999999975 9.18044 0.03615999999999975 9.18044 z" stroke-linecap="round" />
</g>
<g transform="matrix(1 0 0 1 67.24 33.11)" id="tPZBzsddAZyZ4awwSk_Ve"  >
<path style="stroke: rgb(0,0,0); stroke-width: 1; stroke-dasharray: none; stroke-linecap: butt; stroke-dashoffset: 0; stroke-linejoin: miter; stroke-miterlimit: 4; fill: rgb(255,255,255); fill-opacity: 0; fill-rule: nonzero; opacity: 1;" vector-effect="non-scaling-stroke"  transform=" translate(0, 0)" d="M 0.03616 9.18044 C 0.03616 9.18044 -4.92309 7.648250000000001 -4.92309 3.0580300000000005 C -4.92309 -1.53219 0.03615999999999975 -9.180449999999999 0.03615999999999975 -9.180449999999999 C 0.03615999999999975 -9.180449999999999 4.9231 -1.2664999999999988 4.9231 3.3237200000000016 C 4.9231 7.913940000000002 0.03615999999999975 9.18044 0.03615999999999975 9.18044 z" stroke-linecap="round" />
</g>
<g transform="matrix(1 0 0 1 43.96 39.85)" id="F3SCvwaBb2cAd3Ed78uvu"  >
<path style="stroke: rgb(0,0,0); stroke-width: 1; stroke-dasharray: none; stroke-linecap: butt; stroke-dashoffset: 0; stroke-linejoin: miter; stroke-miterlimit: 4; fill: rgb(255,255,255); fill-opacity: 0; fill-rule: nonzero; opacity: 1;" vector-effect="non-scaling-stroke"  transform=" translate(0, 0)" d="M 0.03616 9.18044 C 0.03616 9.18044 -4.92309 7.648250000000001 -4.92309 3.0580300000000005 C -4.92309 -1.53219 0.03615999999999975 -9.180449999999999 0.03615999999999975 -9.180449999999999 C 0.03615999999999975 -9.180449999999999 4.9231 -1.2664999999999988 4.9231 3.3237200000000016 C 4.9231 7.913940000000002 0.03615999999999975 9.18044 0.03615999999999975 9.18044 z" stroke-linecap="round" />
</g>
<g transform="matrix(1 0 0 1 71.82 49.2)" id="F3-R7gT74n0lDF2FEKYVO"  >
<path style="stroke: rgb(0,0,0); stroke-width: 1; stroke-dasharray: none; stroke-linecap: butt; stroke-dashoffset: 0; stroke-linejoin: miter; stroke-miterlimit: 4; fill: rgb(255,255,255); fill-opacity: 0; fill-rule: nonzero; opacity: 1;" vector-effect="non-scaling-stroke"  transform=" translate(0, 0)" d="M -4.07637 1.77524 L 4.07636 -1.77524" stroke-linecap="round" />
</g>
<g transform="matrix(1 0 0 1 62.58 49.17)" id="lyuCXtaClfO_rBiJKAwhv"  >
<path style="stroke: rgb(0,0,0); stroke-width: 1; stroke-dasharray: none; stroke-linecap: butt; stroke-dashoffset: 0; stroke-linejoin: miter; stroke-miterlimit: 4; fill: rgb(255,255,255); fill-opacity: 0; fill-rule: nonzero; opacity: 1;" vector-effect="non-scaling-stroke"  transform=" translate(0, 0)" d="M 5.15659 1.74555 L -5.15659 -1.7455399999999999" stroke-linecap="round" />
</g>
<g transform="matrix(1 0 0 1 114.53 49.29)" id="Bzy766zsPjd7QwDtA5exG"  >
<path style="stroke: rgb(0,0,0); stroke-width: 1; stroke-dasharray: none; stroke-linecap: butt; stroke-dashoffset: 0; stroke-linejoin: miter; stroke-miterlimit: 4; fill: rgb(255,255,255); fill-opacity: 0; fill-rule: nonzero; opacity: 1;" vector-effect="non-scaling-stroke"  transform=" translate(0, 0)" d="M -8.52273 -2.17993 L 0.7701799999999999 2.17993 L 8.52272 -1.8705500000000002" stroke-linecap="round" />
</g>
<g transform="matrix(1 0 0 1 51.89 64.3)" id="8q3JgD4qu1b78B6uV5Qyt"  >
<path style="stroke: rgb(0,0,0); stroke-width: 1; stroke-dasharray: none; stroke-linecap: butt; stroke-dashoffset: 0; stroke-linejoin: miter; stroke-miterlimit: 4; fill: rgb(255,255,255); fill-opacity: 0; fill-rule: nonzero; opacity: 1;" vector-effect="non-scaling-stroke"  transform=" translate(0, 0)" d="M -22.86932 0 L 22.86932 0" stroke-linecap="round" />
</g>
<g transform="matrix(1 0 0 1 81.58 63.8)" id="6yHA4iB5UClUJUFR2aSlJ"  >
<path style="stroke: rgb(0,0,0); stroke-width: 1; stroke-dasharray: none; stroke-linecap: butt; stroke-dashoffset: 0; stroke-linejoin: miter; stroke-miterlimit: 4; fill: rgb(255,255,255); fill-opacity: 0; fill-rule: nonzero; opacity: 1;" vector-effect="non-scaling-stroke"  transform=" translate(0, 0)" d="M 0 0" stroke-linecap="round" />
</g>
<g transform="matrix(1 0 0 1 87.93 63.8)" id="zApsmKJ-8nq7bsnfIjwiy"  >
<path style="stroke: rgb(0,0,0); stroke-width: 1; stroke-dasharray: none; stroke-linecap: butt; stroke-dashoffset: 0; stroke-linejoin: miter; stroke-miterlimit: 4; fill: rgb(255,255,255); fill-opacity: 0; fill-rule: nonzero; opacity: 1;" vector-effect="non-scaling-stroke"  transform=" translate(0, 0)" d="M -5.85795 0 L 5.857959999999999 0" stroke-linecap="round" />
</g>
</svg>