<?xml version="1.0" encoding="UTF-8" standalone="no" ?>
<!DOCTYPE svg PUBLIC "-//W3C//DTD SVG 1.1//EN" "http://www.w3.org/Graphics/SVG/1.1/DTD/svg11.dtd">
<svg xmlns="http://www.w3.org/2000/svg" xmlns:xlink="http://www.w3.org/1999/xlink" version="1.1" width="102.51350500000001" height="79.40473499999996" viewBox="245.85541 375.61985500000003 102.51350500000001 79.40473499999996" xml:space="preserve">
<desc>Created with Fabric.js 4.6.0</desc>
<defs>
</defs>
<g transform="matrix(0.85 0 0 0.85 285.45 415.43)" id="wOHCEUwYhiPrmUmMLXrtr"  >
<path style="stroke: rgb(0,0,0); stroke-width: 2; stroke-dasharray: none; stroke-linecap: butt; stroke-dashoffset: 0; stroke-linejoin: miter; stroke-miterlimit: 4; fill: rgb(255,255,255); fill-rule: nonzero; opacity: 1;" vector-effect="non-scaling-stroke"  transform=" translate(0, 0)" d="M 0 -45.4054 C 25.06378 -45.4054 45.4054 -25.06378 45.4054 0 C 45.4054 25.06378 25.06378 45.4054 0 45.4054 C -25.06378 45.4054 -45.4054 25.06378 -45.4054 0 C -45.4054 -25.06378 -25.06378 -45.4054 0 -45.4054 z" stroke-linecap="round" />
</g>
<g transform="matrix(1 0 0 1 317.45 391.72)" id="ufpwwjTA3fATTIcTnfoWq"  >
<path style="stroke: rgb(0,0,0); stroke-width: 2; stroke-dasharray: none; stroke-linecap: butt; stroke-dashoffset: 0; stroke-linejoin: miter; stroke-miterlimit: 4; fill: rgb(255,255,255); fill-rule: nonzero; opacity: 1;" vector-effect="non-scaling-stroke"  transform=" translate(0, 0)" d="M -29.91892 -15.10015 L 29.918909999999997 -15.10015 L 29.918909999999997 15.10014 L 5.271779999999996 15.10014" stroke-linecap="round" />
</g>
<g transform="matrix(1 0 0 1 304.74 405.34)" id="58ng1scM0Dw-JZlCQ_vdO"  >
<path style="stroke: rgb(0,0,0); stroke-width: 0; stroke-dasharray: none; stroke-linecap: butt; stroke-dashoffset: 0; stroke-linejoin: miter; stroke-miterlimit: 4; fill: rgb(255,255,255); fill-rule: nonzero; opacity: 1;" vector-effect="non-scaling-stroke"  transform=" translate(-10.73, -10.73)" d="M 10.72961 0 C 16.652359999999998 0 21.45922 4.80687 21.45922 10.72961 C 21.45922 16.652359999999998 16.65235 21.45922 10.72961 21.45922 C 4.8068599999999995 21.45922 0 16.65235 0 10.72961 C 0 4.8068599999999995 4.80687 0 10.72961 0 z" stroke-linecap="round" />
</g>
</svg>