<?xml version="1.0" encoding="UTF-8" standalone="no" ?>
<!DOCTYPE svg PUBLIC "-//W3C//DTD SVG 1.1//EN" "http://www.w3.org/Graphics/SVG/1.1/DTD/svg11.dtd">
<svg xmlns="http://www.w3.org/2000/svg" xmlns:xlink="http://www.w3.org/1999/xlink" version="1.1" width="79.56097800890416" height="171.88183489883252" viewBox="185.75380490863284 143.2808635057653 79.56097800890416 171.88183489883252" xml:space="preserve">
<desc>Created with Fabric.js 4.6.0</desc>
<defs>
</defs>
<g transform="matrix(1.31 0 0 1 225.53 173.79)" id="EYVl9KxbCPr-JzIhx_Au0"  >
<path style="stroke: rgb(0,0,0); stroke-width: 2; stroke-dasharray: none; stroke-linecap: butt; stroke-dashoffset: 0; stroke-linejoin: miter; stroke-miterlimit: 4; fill: rgb(121,130,141); fill-rule: nonzero; opacity: 1;" vector-effect="non-scaling-stroke"  transform=" translate(0, 0)" d="M 0 -29.5122 C 16.29073 -29.5122 29.5122 -16.29074 29.5122 0 C 29.5122 16.29073 16.29074 29.5122 0 29.5122 C -16.29073 29.5122 -29.5122 16.29074 -29.5122 0 C -29.5122 -16.29073 -16.29074 -29.5122 0 -29.5122 z" stroke-linecap="round" />
</g>
<g transform="matrix(1.31 0 0 1 225.65 284.65)" id="ItijJcwTsUX3pl-55NFnn"  >
<path style="stroke: rgb(0,0,0); stroke-width: 2; stroke-dasharray: none; stroke-linecap: butt; stroke-dashoffset: 0; stroke-linejoin: miter; stroke-miterlimit: 4; fill: rgb(121,130,141); fill-rule: nonzero; opacity: 1;" vector-effect="non-scaling-stroke"  transform=" translate(0, 0)" d="M 0 -29.5122 C 16.29073 -29.5122 29.5122 -16.29074 29.5122 0 C 29.5122 16.29073 16.29074 29.5122 0 29.5122 C -16.29073 29.5122 -29.5122 16.29074 -29.5122 0 C -29.5122 -16.29073 -16.29074 -29.5122 0 -29.5122 z" stroke-linecap="round" />
</g>
<g transform="matrix(0.66 0 0 0.95 225.53 229.78)" id="3E5dJs6_3j2ZNPcGXkH9M"  >
<path style="stroke: rgb(0,0,0); stroke-width: 2; stroke-dasharray: none; stroke-linecap: butt; stroke-dashoffset: 0; stroke-linejoin: miter; stroke-miterlimit: 4; fill: rgb(121,130,141); fill-rule: nonzero; opacity: 1;" vector-effect="non-scaling-stroke"  transform=" translate(0, 0)" d="M -58.78049 -58.78049 L 58.78049 -58.78049 L 58.78049 58.78049 L -58.78049 58.78049 z" stroke-linecap="round" />
</g>
</svg>