<?xml version="1.0" encoding="UTF-8" standalone="no" ?>
<!DOCTYPE svg PUBLIC "-//W3C//DTD SVG 1.1//EN" "http://www.w3.org/Graphics/SVG/1.1/DTD/svg11.dtd">
<svg xmlns="http://www.w3.org/2000/svg" xmlns:xlink="http://www.w3.org/1999/xlink" version="1.1" width="69.0588128" height="69.0588128" viewBox="194.4905936 35.1605936 69.0588128 69.0588128" xml:space="preserve">
<desc>Created with Fabric.js 4.6.0</desc>
<defs>
</defs>
<g transform="matrix(2.28 0 0 2.28 229.02 69.69)" id="CDGdraPzF4BOjYEz5WTix"  >
<path style="stroke: rgb(0,0,0); stroke-width: 2; stroke-dasharray: none; stroke-linecap: butt; stroke-dashoffset: 0; stroke-linejoin: miter; stroke-miterlimit: 4; fill: rgb(255,255,255); fill-rule: nonzero; opacity: 1;" vector-effect="non-scaling-stroke"  transform=" translate(0, 0)" d="M 0 -14.70588 C 8.11765 -14.70588 14.70588 -8.117640000000002 14.70588 0 C 14.70588 8.11765 8.117640000000002 14.70588 0 14.70588 C -8.11765 14.70588 -14.70588 8.117640000000002 -14.70588 0 C -14.70588 -8.11765 -8.117640000000002 -14.70588 0 -14.70588 z" stroke-linecap="round" />
</g>
<g transform="matrix(2.13 0 0 2.13 239.09 69.07)" id="nJRCFpuUwsUOmMLRtCGDA"  >
<path style="stroke: rgb(0,0,0); stroke-width: 1; stroke-dasharray: none; stroke-linecap: butt; stroke-dashoffset: 0; stroke-linejoin: miter; stroke-miterlimit: 4; fill: rgb(255,255,255); fill-opacity: 0; fill-rule: nonzero; opacity: 1;" vector-effect="non-scaling-stroke"  transform=" translate(0, 0)" d="M -4.21687 -0.01255 C -4.21687 -0.01255 -1.60643 -1.0503900000000002 0.5020100000000003 -1.00513 C 2.61044 -0.9598700000000001 4.21687 -0.33352000000000004 4.21687 0.16849000000000003 C 4.21687 0.6705 2.61044 1.04816 0.5020100000000003 1.0029 C -1.6064199999999995 0.9576399999999999 -4.21687 -0.012550000000000061 -4.21687 -0.012550000000000061 z" stroke-linecap="round" />
</g>
<g transform="matrix(-1.07 -1.84 1.84 -1.07 222.07 58.75)" id="AyFzZ4q20I8kASYEpHUUB"  >
<path style="stroke: rgb(0,0,0); stroke-width: 1; stroke-dasharray: none; stroke-linecap: butt; stroke-dashoffset: 0; stroke-linejoin: miter; stroke-miterlimit: 4; fill: rgb(255,255,255); fill-opacity: 0; fill-rule: nonzero; opacity: 1;" vector-effect="non-scaling-stroke"  transform=" translate(0, 0)" d="M -4.21687 -0.01255 C -4.21687 -0.01255 -1.60643 -1.0503900000000002 0.5020100000000003 -1.00513 C 2.61044 -0.9598700000000001 4.21687 -0.33352000000000004 4.21687 0.16849000000000003 C 4.21687 0.6705 2.61044 1.04816 0.5020100000000003 1.0029 C -1.6064199999999995 0.9576399999999999 -4.21687 -0.012550000000000061 -4.21687 -0.012550000000000061 z" stroke-linecap="round" />
</g>
<g transform="matrix(-1.07 1.84 -1.84 -1.07 221.75 79.38)" id="pjbNYemR9VWG4xID6ELpB"  >
<path style="stroke: rgb(0,0,0); stroke-width: 1; stroke-dasharray: none; stroke-linecap: butt; stroke-dashoffset: 0; stroke-linejoin: miter; stroke-miterlimit: 4; fill: rgb(255,255,255); fill-opacity: 0; fill-rule: nonzero; opacity: 1;" vector-effect="non-scaling-stroke"  transform=" translate(0, 0)" d="M -4.21687 -0.01255 C -4.21687 -0.01255 -1.60643 -1.0503900000000002 0.5020100000000003 -1.00513 C 2.61044 -0.9598700000000001 4.21687 -0.33352000000000004 4.21687 0.16849000000000003 C 4.21687 0.6705 2.61044 1.04816 0.5020100000000003 1.0029 C -1.6064199999999995 0.9576399999999999 -4.21687 -0.012550000000000061 -4.21687 -0.012550000000000061 z" stroke-linecap="round" />
</g>
<g transform="matrix(2.13 0 0 2.13 239.09 51.43)" id="z16JMjqVRBsenay7NjzGl"  >
<path style="stroke: rgb(0,0,0); stroke-width: 2; stroke-dasharray: none; stroke-linecap: butt; stroke-dashoffset: 0; stroke-linejoin: miter; stroke-miterlimit: 4; fill: rgb(255,255,255); fill-opacity: 0; fill-rule: nonzero; opacity: 1;" vector-effect="non-scaling-stroke"  transform=" translate(0, 0)" d="M -10.7234 -5.48936 L 10.72341 5.48936" stroke-linecap="round" />
</g>
<g transform="matrix(2.09 0 0 2.13 239.17 89.19)" id="3nm4c40F3HYoiA5lUxx0h"  >
<path style="stroke: rgb(0,0,0); stroke-width: 2; stroke-dasharray: none; stroke-linecap: butt; stroke-dashoffset: 0; stroke-linejoin: miter; stroke-miterlimit: 4; fill: rgb(255,255,255); fill-opacity: 0; fill-rule: nonzero; opacity: 1;" vector-effect="non-scaling-stroke"  transform=" translate(0, 0)" d="M 10.93085 -5.74468 L -10.93085 5.74468" stroke-linecap="round" />
</g>
<g transform="matrix(2.13 0 0 2.13 228.1 69.07)" id="0m50TgVtqlxS0qfhju3Bx"  >
<path style="stroke: rgb(0,0,0); stroke-width: 0; stroke-dasharray: none; stroke-linecap: butt; stroke-dashoffset: 0; stroke-linejoin: miter; stroke-miterlimit: 4; fill: rgb(0,0,0); fill-rule: nonzero; opacity: 1;" vector-effect="non-scaling-stroke"  transform=" translate(0, 0)" d="M 0 -0.83705 C 0.46205 -0.83705 0.83705 -0.46204999999999996 0.83705 0 C 0.83705 0.46205 0.46204999999999996 0.83705 0 0.83705 C -0.46205 0.83705 -0.83705 0.46204999999999996 -0.83705 0 C -0.83705 -0.46205 -0.46204999999999996 -0.83705 0 -0.83705 z" stroke-linecap="round" />
</g>
</svg>