<?xml version="1.0" encoding="UTF-8" standalone="no" ?>
<!DOCTYPE svg PUBLIC "-//W3C//DTD SVG 1.1//EN" "http://www.w3.org/Graphics/SVG/1.1/DTD/svg11.dtd">
<svg xmlns="http://www.w3.org/2000/svg" xmlns:xlink="http://www.w3.org/1999/xlink" version="1.1" width="33.56346458819928" height="33.56346458819931" viewBox="207.35000957878236 37.16655 33.56346458819928 33.56346458819931" xml:space="preserve">
<desc>Created with Fabric.js 4.6.0</desc>
<defs>
</defs>
<g transform="matrix(1.07 0 0 1.07 224.13 53.95)" id="FjgJiHvN2awE3T6k9BygL"  >
<path style="stroke: rgb(0,0,0); stroke-width: 2; stroke-dasharray: none; stroke-linecap: butt; stroke-dashoffset: 0; stroke-linejoin: miter; stroke-miterlimit: 4; fill: rgb(48,255,36); fill-rule: nonzero; opacity: 1;" vector-effect="non-scaling-stroke"  transform=" translate(0, 0)" d="M 0 -14.70588 C 8.11765 -14.70588 14.70588 -8.117640000000002 14.70588 0 C 14.70588 8.11765 8.117640000000002 14.70588 0 14.70588 C -8.11765 14.70588 -14.70588 8.117640000000002 -14.70588 0 C -14.70588 -8.11765 -8.117640000000002 -14.70588 0 -14.70588 z" stroke-linecap="round" />
</g>
<g transform="matrix(1 0 0 1 228.85 53.65)" id="7K4D5Wk74FuLSYHiUHOPK"  >
<path style="stroke: rgb(0,0,0); stroke-width: 1; stroke-dasharray: none; stroke-linecap: butt; stroke-dashoffset: 0; stroke-linejoin: miter; stroke-miterlimit: 4; fill: rgb(255,255,255); fill-opacity: 0; fill-rule: nonzero; opacity: 1;" vector-effect="non-scaling-stroke"  transform=" translate(0, 0)" d="M -4.21687 -0.01255 C -4.21687 -0.01255 -1.60643 -1.0503900000000002 0.5020100000000003 -1.00513 C 2.61044 -0.9598700000000001 4.21687 -0.33352000000000004 4.21687 0.16849000000000003 C 4.21687 0.6705 2.61044 1.04816 0.5020100000000003 1.0029 C -1.6064199999999995 0.9576399999999999 -4.21687 -0.012550000000000061 -4.21687 -0.012550000000000061 z" stroke-linecap="round" />
</g>
<g transform="matrix(-0.5 -0.87 0.87 -0.5 220.87 48.82)" id="hkZ1a0whXqHyucHrdmmiu"  >
<path style="stroke: rgb(0,0,0); stroke-width: 1; stroke-dasharray: none; stroke-linecap: butt; stroke-dashoffset: 0; stroke-linejoin: miter; stroke-miterlimit: 4; fill: rgb(255,255,255); fill-opacity: 0; fill-rule: nonzero; opacity: 1;" vector-effect="non-scaling-stroke"  transform=" translate(0, 0)" d="M -4.21687 -0.01255 C -4.21687 -0.01255 -1.60643 -1.0503900000000002 0.5020100000000003 -1.00513 C 2.61044 -0.9598700000000001 4.21687 -0.33352000000000004 4.21687 0.16849000000000003 C 4.21687 0.6705 2.61044 1.04816 0.5020100000000003 1.0029 C -1.6064199999999995 0.9576399999999999 -4.21687 -0.012550000000000061 -4.21687 -0.012550000000000061 z" stroke-linecap="round" />
</g>
<g transform="matrix(-0.5 0.87 -0.87 -0.5 220.72 58.49)" id="Og4P_uQQNqXEWoqQhjQQU"  >
<path style="stroke: rgb(0,0,0); stroke-width: 1; stroke-dasharray: none; stroke-linecap: butt; stroke-dashoffset: 0; stroke-linejoin: miter; stroke-miterlimit: 4; fill: rgb(255,255,255); fill-opacity: 0; fill-rule: nonzero; opacity: 1;" vector-effect="non-scaling-stroke"  transform=" translate(0, 0)" d="M -4.21687 -0.01255 C -4.21687 -0.01255 -1.60643 -1.0503900000000002 0.5020100000000003 -1.00513 C 2.61044 -0.9598700000000001 4.21687 -0.33352000000000004 4.21687 0.16849000000000003 C 4.21687 0.6705 2.61044 1.04816 0.5020100000000003 1.0029 C -1.6064199999999995 0.9576399999999999 -4.21687 -0.012550000000000061 -4.21687 -0.012550000000000061 z" stroke-linecap="round" />
</g>
<g transform="matrix(1 0 0 1 228.85 45.39)" id="QBxXt9gzWTUzOvsLr_xub"  >
<path style="stroke: rgb(0,0,0); stroke-width: 2; stroke-dasharray: none; stroke-linecap: butt; stroke-dashoffset: 0; stroke-linejoin: miter; stroke-miterlimit: 4; fill: rgb(255,255,255); fill-opacity: 0; fill-rule: nonzero; opacity: 1;" vector-effect="non-scaling-stroke"  transform=" translate(0, 0)" d="M -10.7234 -5.48936 L 10.72341 5.48936" stroke-linecap="round" />
</g>
<g transform="matrix(0.98 0 0 1 228.89 63.09)" id="j7EFD_BvjChH1d1RgvpJB"  >
<path style="stroke: rgb(0,0,0); stroke-width: 2; stroke-dasharray: none; stroke-linecap: butt; stroke-dashoffset: 0; stroke-linejoin: miter; stroke-miterlimit: 4; fill: rgb(255,255,255); fill-opacity: 0; fill-rule: nonzero; opacity: 1;" vector-effect="non-scaling-stroke"  transform=" translate(0, 0)" d="M 10.93085 -5.74468 L -10.93085 5.74468" stroke-linecap="round" />
</g>
<g transform="matrix(1 0 0 1 223.7 53.65)" id="9Vy6WP6LLmpYGPTZHgWpx"  >
<path style="stroke: rgb(0,0,0); stroke-width: 0; stroke-dasharray: none; stroke-linecap: butt; stroke-dashoffset: 0; stroke-linejoin: miter; stroke-miterlimit: 4; fill: rgb(0,0,0); fill-rule: nonzero; opacity: 1;" vector-effect="non-scaling-stroke"  transform=" translate(-0.84, -0.84)" d="M 0.83705 0 C 1.2991 0 1.6741 0.375 1.6741 0.83705 C 1.6741 1.2991 1.2991 1.6741 0.83705 1.6741 C 0.37499999999999994 1.6741 0 1.2991 0 0.83705 C 0 0.37499999999999994 0.375 0 0.83705 0 z" stroke-linecap="round" />
</g>
</svg>