<?xml version="1.0" encoding="UTF-8" standalone="no" ?>
<!DOCTYPE svg PUBLIC "-//W3C//DTD SVG 1.1//EN" "http://www.w3.org/Graphics/SVG/1.1/DTD/svg11.dtd">
<svg xmlns="http://www.w3.org/2000/svg" xmlns:xlink="http://www.w3.org/1999/xlink" version="1.1" width="110.74630110663055" height="110.74630110663063" viewBox="70.16480050650296 164.5149551393672 110.74630110663055 110.74630110663063" xml:space="preserve">
<desc>Created with Fabric.js 4.6.0</desc>
<defs>
</defs>
<g transform="matrix(0.93 0 0 0.93 125.54 219.89)" id="LQHzvsFpV5UjcZ9hK3KiL"  >
<path style="stroke: rgb(0,0,0); stroke-width: 2; stroke-dasharray: none; stroke-linecap: butt; stroke-dashoffset: 0; stroke-linejoin: miter; stroke-miterlimit: 4; fill: rgb(255,0,0); fill-rule: nonzero; opacity: 1;" vector-effect="non-scaling-stroke"  transform=" translate(0, 0)" d="M 0 -58.17307 C 32.11154 -58.17307 58.17307 -32.11153 58.17307 0 C 58.17307 32.11154 32.11153 58.17307 0 58.17307 C -32.11154 58.17307 -58.17307 32.11153 -58.17307 0 C -58.17307 -32.11154 -32.11153 -58.17307 0 -58.17307 z" stroke-linecap="round" />
</g>
<g transform="matrix(1 0 0 1 125.54 220.13)" id="vjJ5DZKuOIUF_azbmKK5f"  >
<path style="stroke: rgb(0,0,0); stroke-width: 2; stroke-dasharray: none; stroke-linecap: butt; stroke-dashoffset: 0; stroke-linejoin: miter; stroke-miterlimit: 4; fill: none; fill-rule: nonzero; opacity: 1;" vector-effect="non-scaling-stroke"  transform=" translate(0, 0)" d="M -37.5 39.19231 L 37.5 -39.19231" stroke-linecap="round" />
</g>
<g transform="matrix(0.98 0 0 0.98 126.23 219.89)" id="YKuA6iT-xb9SEeQNbdeUZ"  >
<path style="stroke: rgb(0,0,0); stroke-width: 2; stroke-dasharray: none; stroke-linecap: butt; stroke-dashoffset: 0; stroke-linejoin: miter; stroke-miterlimit: 4; fill: none; fill-rule: nonzero; opacity: 1;" vector-effect="non-scaling-stroke"  transform=" translate(0, 0)" d="M -39.44231 -39.19231 L 39.44231 39.19231" stroke-linecap="round" />
</g>
</svg>