<?xml version="1.0" encoding="UTF-8" standalone="no" ?>
<!DOCTYPE svg PUBLIC "-//W3C//DTD SVG 1.1//EN" "http://www.w3.org/Graphics/SVG/1.1/DTD/svg11.dtd">
<svg xmlns="http://www.w3.org/2000/svg" xmlns:xlink="http://www.w3.org/1999/xlink" version="1.1" width="97.87914307620339" height="105.84615490829884" viewBox="76.59837952171654 313.6505365722636 97.87914307620339 105.84615490829884" xml:space="preserve">
<desc>Created with Fabric.js 4.6.0</desc>
<defs>
</defs>
<g transform="matrix(1 0 0 1 125.54 408.52)" id="kUX1-1TnKcGLpqBSR-vMm"  >
<path style="stroke: rgb(0,0,0); stroke-width: 2; stroke-dasharray: none; stroke-linecap: butt; stroke-dashoffset: 0; stroke-linejoin: miter; stroke-miterlimit: 4; fill: rgb(48,255,36); fill-rule: nonzero; opacity: 1;" vector-effect="non-scaling-stroke"  transform=" translate(0, 0)" d="M -28.51094 -9.97612 L -47.93957 9.97612 L 47.93957 9.97612 L 29.846160000000005 -9.97612" stroke-linecap="round" />
</g>
<g transform="matrix(0.97 0 0 0.97 126.04 362.09)" id="5WtPV1bVK9_V_P4JKPcdr"  >
<path style="stroke: rgb(0,0,0); stroke-width: 2; stroke-dasharray: none; stroke-linecap: butt; stroke-dashoffset: 0; stroke-linejoin: miter; stroke-miterlimit: 4; fill: rgb(48,255,36); fill-rule: nonzero; opacity: 1;" vector-effect="non-scaling-stroke"  transform=" translate(0, 0)" d="M 0 -49.03846 C 27.06923 -49.03846 49.03846 -27.06923 49.03846 0 C 49.03846 27.06923 27.06923 49.03846 0 49.03846 C -27.06923 49.03846 -49.03846 27.06923 -49.03846 0 C -49.03846 -27.06923 -27.06923 -49.03846 0 -49.03846 z" stroke-linecap="round" />
</g>
<g transform="matrix(1.16 0 0 1.16 126.04 331.31)" id="z5LJGzbvVTFkq09JeReBI"  >
<path style="stroke: rgb(0,0,0); stroke-width: 2; stroke-dasharray: none; stroke-linecap: butt; stroke-dashoffset: 0; stroke-linejoin: miter; stroke-miterlimit: 4; fill: rgb(48,255,36); fill-rule: nonzero; opacity: 1;" vector-effect="non-scaling-stroke"  transform=" translate(0, 0)" d="M 0 -14.42308 C 7.96154 -14.42308 14.42308 -7.96154 14.42308 0 C 14.42308 7.96154 7.96154 14.42308 0 14.42308 C -7.96154 14.42308 -14.42308 7.96154 -14.42308 0 C -14.42308 -7.96154 -7.96154 -14.42308 0 -14.42308 z" stroke-linecap="round" />
</g>
<g transform="matrix(1.16 0 0 1.16 100.34 377.41)" id="7jBqyIUzO9X6ELb0g2ve7"  >
<path style="stroke: rgb(0,0,0); stroke-width: 2; stroke-dasharray: none; stroke-linecap: butt; stroke-dashoffset: 0; stroke-linejoin: miter; stroke-miterlimit: 4; fill: rgb(48,255,36); fill-rule: nonzero; opacity: 1;" vector-effect="non-scaling-stroke"  transform=" translate(0, 0)" d="M 0 -14.42308 C 7.96154 -14.42308 14.42308 -7.96154 14.42308 0 C 14.42308 7.96154 7.96154 14.42308 0 14.42308 C -7.96154 14.42308 -14.42308 7.96154 -14.42308 0 C -14.42308 -7.96154 -7.96154 -14.42308 0 -14.42308 z" stroke-linecap="round" />
</g>
<g transform="matrix(1.16 0 0 1.16 152.37 377.41)" id="BwHo4zffc5i3UWS1N3POw"  >
<path style="stroke: rgb(0,0,0); stroke-width: 2; stroke-dasharray: none; stroke-linecap: butt; stroke-dashoffset: 0; stroke-linejoin: miter; stroke-miterlimit: 4; fill: rgb(48,255,36); fill-rule: nonzero; opacity: 1;" vector-effect="non-scaling-stroke"  transform=" translate(0, 0)" d="M 0 -14.42308 C 7.96154 -14.42308 14.42308 -7.96154 14.42308 0 C 14.42308 7.96154 7.96154 14.42308 0 14.42308 C -7.96154 14.42308 -14.42308 7.96154 -14.42308 0 C -14.42308 -7.96154 -7.96154 -14.42308 0 -14.42308 z" stroke-linecap="round" />
</g>
<g transform="matrix(1 0 0 1.02 126.38 355.11)" id="snEYuHpF1AE84ni_Tq2BM"  >
<path style="stroke: rgb(0,0,0); stroke-width: 2; stroke-dasharray: none; stroke-linecap: butt; stroke-dashoffset: 0; stroke-linejoin: miter; stroke-miterlimit: 4; fill: rgb(255,255,255); fill-opacity: 0; fill-rule: nonzero; opacity: 1;" vector-effect="non-scaling-stroke"  transform=" translate(0, 0)" d="M 42.96347 23.02424 L 40.71988 13.48321 L 27.180960000000006 -10.962510000000002 L 12.200850000000006 -34.530950000000004 L 7.492740000000007 -38.73669 C 7.492740000000007 -38.73669 1.2302100000000067 -39.598110000000005 -0.39664999999999306 -39.598110000000005 C -2.246949999999993 -39.598110000000005 -9.259099999999993 -37.585750000000004 -9.259099999999993 -37.585750000000004 L -14.171059999999994 -32.549820000000004 L -41.335229999999996 14.137579999999993 L -42.976299999999995 20.702369999999995 L -42.976299999999995 25.220249999999993 L -39.37002 33.74802999999999 C -39.37002 33.74802999999999 -37.50769 36.928999999999995 -27.76007 38.481719999999996 C -11.991219999999998 40.99357 34.451840000000004 38.481719999999996 34.451840000000004 38.481719999999996 C 34.451840000000004 38.481719999999996 39.329890000000006 32.52383999999999 41.44585000000001 28.858929999999994 C 43.219350000000006 25.787189999999995 42.96347000000001 23.024239999999992 42.96347000000001 23.024239999999992 z" stroke-linecap="round" />
</g>
</svg>