<?xml version="1.0" encoding="UTF-8" standalone="no" ?>
<!DOCTYPE svg PUBLIC "-//W3C//DTD SVG 1.1//EN" "http://www.w3.org/Graphics/SVG/1.1/DTD/svg11.dtd">
<svg xmlns="http://www.w3.org/2000/svg" xmlns:xlink="http://www.w3.org/1999/xlink" version="1.1" width="127.46462590529455" height="65.84275310975607" viewBox="411.74768704735277 287.81383500000004 127.46462590529455 65.84275310975607" xml:space="preserve">
<desc>Created with Fabric.js 4.6.0</desc>
<defs>
</defs>
<g transform="matrix(1.26 0 0 0.75 475.48 302.17)" id="7eB1m5Ylad2I2suIt8e4W"  >
<path style="stroke: rgb(0,0,0); stroke-width: 2; stroke-dasharray: none; stroke-linecap: butt; stroke-dashoffset: 0; stroke-linejoin: miter; stroke-miterlimit: 4; fill: rgb(48,255,36); fill-rule: nonzero; opacity: 1;" vector-effect="non-scaling-stroke"  transform=" translate(0, 0)" d="M -17.80822 -17.80822 L 17.80822 -17.80822 L 17.80822 17.80822 L -17.80822 17.80822 z" stroke-linecap="round" />
</g>
<g transform="matrix(1 0 0 1 521.03 307.62)" id="JIBBZQX1TeSw8cD8EcEPu"  >
<path style="stroke: rgb(0,0,0); stroke-width: 2; stroke-dasharray: none; stroke-linecap: butt; stroke-dashoffset: 0; stroke-linejoin: miter; stroke-miterlimit: 4; fill: rgb(48,255,36); fill-rule: nonzero; opacity: 1;" vector-effect="non-scaling-stroke"  transform=" translate(0, 0)" d="M 0 7.85226 C 0 6.4824 0 -7.852250000000001 0 -7.852250000000001" stroke-linecap="round" />
</g>
<g transform="matrix(1 0 0 1 521.03 299.27)" id="HFCVsQRXvUj2HXc0alrkI"  >
<path style="stroke: rgb(0,0,0); stroke-width: 2; stroke-dasharray: none; stroke-linecap: butt; stroke-dashoffset: 0; stroke-linejoin: miter; stroke-miterlimit: 4; fill: rgb(48,255,36); fill-rule: nonzero; opacity: 1;" vector-effect="non-scaling-stroke"  transform=" translate(0, 0)" d="M -7.39583 0 L 7.39584 0" stroke-linecap="round" />
</g>
<g transform="matrix(1 0 0 1 475.48 333.84)" id="XoumJw9xMcX8eN0RyD3xt"  >
<path style="stroke: rgb(0,0,0); stroke-width: 2; stroke-dasharray: none; stroke-linecap: butt; stroke-dashoffset: 0; stroke-linejoin: miter; stroke-miterlimit: 4; fill: rgb(48,255,36); fill-rule: nonzero; opacity: 1;" vector-effect="non-scaling-stroke"  transform=" translate(0, 0)" d="M 48.15821 -18.81281 C 48.15821 -18.81281 63.406 -15.87525 62.709129999999995 0.8482200000000013 C 62.012269999999994 17.5717 48.15821 18.812800000000003 48.15821 18.812800000000003 L -48.76117000000001 18.812800000000003 C -48.76117000000001 18.812800000000003 -63.06468000000001 15.322230000000003 -62.726400000000005 -1.0528099999999974 C -62.38812000000001 -17.427849999999996 -48.80178000000001 -18.81281 -48.80178000000001 -18.81281 L 48.158219999999986 -18.81281" stroke-linecap="round" />
</g>
</svg>